<?xml version="1.0" encoding="iso-8859-1"?>
<!-- Generator: Adobe Illustrator 19.0.0, SVG Export Plug-In . SVG Version: 6.00 Build 0)  -->
<svg version="1.1" id="Capa_1" xmlns="http://www.w3.org/2000/svg" xmlns:xlink="http://www.w3.org/1999/xlink" x="0px" y="0px"
	 viewBox="0 0 483.319 483.319" style="enable-background:new 0 0 483.319 483.319;" xml:space="preserve">
<path style="fill:#FAE249;" d="M385.657,161.659h-128l72-152h-152l-48,216h104l-96,216L385.657,161.659z"/>
<g>
	<path style="fill:#FAD905;" d="M1.657,233.659h80v16h-80V233.659z"/>
	<path style="fill:#FAD905;" d="M401.657,233.659h80v16h-80V233.659z"/>
	<path style="fill:#FAD905;" d="M416.006,60.002l56-56l11.313,11.313l-56,56L416.006,60.002z"/>
	<path style="fill:#FAD905;" d="M0.036,460.004l56-56l11.313,11.313l-56,56L0.036,460.004z"/>
	<path style="fill:#FAD905;" d="M416.003,423.319l11.313-11.313l56,56l-11.313,11.313L416.003,423.319z"/>
	<path style="fill:#FAD905;" d="M0,15.312L11.313,3.999l56,56L56,71.312L0,15.312z"/>
</g>
<g>
</g>
<g>
</g>
<g>
</g>
<g>
</g>
<g>
</g>
<g>
</g>
<g>
</g>
<g>
</g>
<g>
</g>
<g>
</g>
<g>
</g>
<g>
</g>
<g>
</g>
<g>
</g>
<g>
</g>
</svg>
