<?xml version="1.0" encoding="iso-8859-1"?>
<!-- Generator: Adobe Illustrator 19.0.0, SVG Export Plug-In . SVG Version: 6.00 Build 0)  -->
<svg version="1.1" id="Capa_1" xmlns="http://www.w3.org/2000/svg" xmlns:xlink="http://www.w3.org/1999/xlink" x="0px" y="0px"
	 viewBox="0 0 483.312 483.312" style="enable-background:new 0 0 483.312 483.312;" xml:space="preserve">
<g>
	<g>
		<path d="M392.86,158.176c-1.336-2.768-4.128-4.52-7.2-4.52H270.3L336.884,13.08c1.176-2.48,1-5.384-0.472-7.704
			c-1.456-2.312-4.008-3.72-6.752-3.72h-160c-3.856,0-7.168,2.752-7.864,6.544l-40,216c-0.432,2.336,0.192,4.744,1.72,6.568
			c1.512,1.832,3.768,2.888,6.144,2.888h92.328l-91.792,237.112c-1.424,3.688,0.056,7.864,3.488,9.824h0
			c1.24,0.72,2.616,1.064,3.968,1.064c2.376,0,4.704-1.056,6.272-3.024l248-312C393.828,164.224,394.196,160.944,392.86,158.176z
			 M164.084,427.552l77.04-199.008c0.952-2.464,0.632-5.232-0.856-7.416c-1.496-2.168-3.968-3.472-6.608-3.472h-94.384l37.04-200
			H317.02l-66.584,140.576c-1.176,2.48-1,5.384,0.472,7.704c1.456,2.312,4.008,3.72,6.752,3.72h111.424L164.084,427.552z"/>
	</g>
</g>
<g>
	<g>
		<rect x="1.66" y="233.656" width="80" height="16"/>
	</g>
</g>
<g>
	<g>
		<rect x="401.66" y="233.656" width="80" height="16"/>
	</g>
</g>
<g>
	<g>
		<rect x="410.061" y="29.662" transform="matrix(0.7071 -0.7071 0.7071 0.7071 105.0706 328.9861)" width="79.191" height="16"/>
	</g>
</g>
<g>
	<g>
		<rect x="-5.908" y="429.655" transform="matrix(0.7071 -0.7071 0.7071 0.7071 -299.602 152.0065)" width="79.191" height="16"/>
	</g>
</g>
<g>
	<g>
		<rect x="441.65" y="406.061" transform="matrix(0.7071 -0.7071 0.7071 0.7071 -183.4276 448.48)" width="16" height="79.191"/>
	</g>
</g>
<g>
	<g>
		<rect x="25.655" y="-1.946" transform="matrix(0.7071 -0.7071 0.7071 0.7071 -16.7648 34.8251)" width="16" height="79.191"/>
	</g>
</g>
<g>
</g>
<g>
</g>
<g>
</g>
<g>
</g>
<g>
</g>
<g>
</g>
<g>
</g>
<g>
</g>
<g>
</g>
<g>
</g>
<g>
</g>
<g>
</g>
<g>
</g>
<g>
</g>
<g>
</g>
</svg>
