<?xml version="1.0" encoding="iso-8859-1"?>
<!-- Generator: Adobe Illustrator 19.0.0, SVG Export Plug-In . SVG Version: 6.00 Build 0)  -->
<svg version="1.1" id="Capa_1" xmlns="http://www.w3.org/2000/svg" xmlns:xlink="http://www.w3.org/1999/xlink" x="0px" y="0px"
	 viewBox="0 0 512 512" style="enable-background:new 0 0 512 512;" xml:space="preserve">
<path style="fill:#A8D3D6;" d="M316.6,0H195.397c-3.414,0-6.181,2.767-6.181,6.181v116.723h133.565V6.181
	C322.781,2.767,320.014,0,316.6,0z"/>
<path style="fill:#84AFB4;" d="M316.6,0h-27.209v122.904h33.39V6.181C322.781,2.767,320.014,0,316.6,0z"/>
<path style="fill:#FFD347;" d="M272.696,122.902h-33.392V72.965c0-3.414,2.767-6.181,6.181-6.181h21.03
	c3.414,0,6.181,2.767,6.181,6.181V122.902z"/>
<path style="fill:#A8D3D6;" d="M361.122,512H150.876c-3.414,0-6.181-2.767-6.181-6.181v-50.202h222.609v50.202
	C367.303,509.233,364.535,512,361.122,512z"/>
<path style="fill:#84AFB4;" d="M361.122,512h-27.21v-56.383h33.391v50.202C367.303,509.233,364.535,512,361.122,512z"/>
<path style="fill:#DCF3F4;" d="M411.825,200.348c0-49.178-39.867-89.044-89.044-89.044l-133.565,0.002
	c-49.177,0-89.042,39.865-89.042,89.042l0.001,222.605c0,24.588,19.933,44.521,44.521,44.521h222.605
	c24.588,0,44.521-19.933,44.521-44.521L411.825,200.348z"/>
<path style="fill:#B0CDCF;" d="M322.781,111.303h-33.382c49.171,0.009,89.028,39.871,89.028,89.044l-0.001,222.605
	c0,24.588-19.933,44.521-44.521,44.521h33.398c24.588,0,44.521-19.933,44.521-44.521l0.001-222.605
	C411.825,151.17,371.959,111.303,322.781,111.303z"/>
<path style="fill:#FE8A46;" d="M299.88,326.411c-2.447-39.154-22.964-63.445-35.058-74.498c-3.526-3.223-9.179-1.346-10.198,3.321
	c-4.158,19.058-15.864,30.826-15.864,30.826l-4.603-4.603c-2.882-2.882-7.715-2.227-9.747,1.307
	c-17.113,29.787-12.584,56.756-12.584,56.756v-0.002c2.761,21.939,21.484,38.912,44.171,38.912
	c24.588,0,44.522-19.933,44.522-44.522C300.521,332.489,299.946,327.47,299.88,326.411z"/>
<path style="fill:#F26C2C;" d="M299.88,326.411c-2.447-39.159-22.969-63.45-35.062-74.502c-3.516-3.213-9.174-1.363-10.188,3.29
	c-0.551,2.527-1.235,4.927-2.007,7.189c11.06,13.312,23.242,34.415,25.092,64.022c0.066,1.059,0.641,6.077,0.641,7.499
	c0,20.755-14.201,38.192-33.417,43.125c3.538,0.906,7.241,1.397,11.061,1.397c24.588,0,44.522-19.933,44.522-44.521
	C300.521,332.489,299.946,327.47,299.88,326.411z"/>
<g>
	<path style="fill:#B0CDCF;" d="M378.434,208.073h-22.26c-4.268,0-7.726-3.458-7.726-7.726s3.458-7.726,7.726-7.726h22.26
		c4.268,0,7.726,3.458,7.726,7.726C386.161,204.614,382.701,208.073,378.434,208.073z"/>
	<path style="fill:#B0CDCF;" d="M155.826,430.682h-22.261c-4.268,0-7.726-3.458-7.726-7.726c0-4.268,3.458-7.726,7.726-7.726h22.261
		c4.268,0,7.726,3.458,7.726,7.726C163.552,427.222,160.093,430.682,155.826,430.682z"/>
	<path style="fill:#B0CDCF;" d="M191.827,415.225c-4.268,0-7.726,3.459-7.726,7.726c0,4.268,3.458,7.726,7.726,7.726h219.314
		c0.44-2.511,0.682-5.089,0.682-7.725v-7.727H191.827z"/>
	<path style="fill:#B0CDCF;" d="M320.17,192.623H100.529c-0.219,2.548-0.354,5.12-0.354,7.724v7.728l0,0H320.17
		c4.268,0,7.726-3.458,7.726-7.726S324.439,192.623,320.17,192.623z"/>
</g>
<g>
</g>
<g>
</g>
<g>
</g>
<g>
</g>
<g>
</g>
<g>
</g>
<g>
</g>
<g>
</g>
<g>
</g>
<g>
</g>
<g>
</g>
<g>
</g>
<g>
</g>
<g>
</g>
<g>
</g>
</svg>
