<?xml version="1.0" encoding="iso-8859-1"?>
<!-- Generator: Adobe Illustrator 19.0.0, SVG Export Plug-In . SVG Version: 6.00 Build 0)  -->
<svg version="1.1" id="Capa_1" xmlns="http://www.w3.org/2000/svg" xmlns:xlink="http://www.w3.org/1999/xlink" x="0px" y="0px"
	 viewBox="0 0 512 512" style="enable-background:new 0 0 512 512;" xml:space="preserve">
<path style="fill:#07A9F0;" d="M260.752,508.163c-7.119,2.472-14.877,3.836-23.125,3.836c-3.602,0-7.119-0.256-10.518-0.757
	c-48.158-7.066-75.173-61.948-49.458-104.885l48.606-94.974c0.266-0.501,0.544-0.98,0.853-1.428
	c5.318-7.811,17.403-7.332,21.889,1.428l11.765,22.987l36.841,71.987C320.952,445.352,300.8,494.278,260.752,508.163z"/>
<path style="fill:#40C1FA;" d="M260.752,508.163c-40.027-13.897-60.211-62.78-36.83-101.805l36.841-71.987l36.841,71.987
	C320.952,445.352,300.8,494.278,260.752,508.163z"/>
<path style="fill:#07A9F0;" d="M213.563,261.031L56.3,161.613C-0.682,126.403-14.557,56.132,37.97,16.829
	c0.139-0.107,0.277-0.202,0.416-0.298c55.352-40.933,132.582-0.703,133.275,64.367c0.16,14.845,2.067,57.377,17.36,106.036
	c6.991,22.198,16.753,45.665,30.415,68.364C221.726,259.102,217.325,263.407,213.563,261.031z"/>
<path style="fill:#40C1FA;" d="M189.02,186.934L85.958,121.778C45.174,96.585,26.471,53.435,38.386,16.531
	c55.352-40.933,132.582-0.703,133.275,64.367C171.82,95.743,173.728,138.275,189.02,186.934z"/>
<path style="fill:#07A9F0;" d="M456.944,133.863c0,0-36.574,11.392-96.764,54.435c-24.021,17.179-51.792,39.398-82.505,67.948
	c-2.963,2.76-7.513-0.725-5.627-4.305L375.313,56.547c27.548-48.435,75.227-71.071,113.868-36.361
	c10.945,9.826,17.925,21.74,20.919,34.187C517.603,85.566,500.041,120.147,456.944,133.863z"/>
<g>
	<path style="fill:#40C1FA;" d="M456.944,133.863c0,0-36.574,11.392-96.764,54.435l47.178-89.262
		c24.958-43.874,66.424-66.584,102.743-44.663C517.603,85.566,500.041,120.147,456.944,133.863z"/>
	<path style="fill:#40C1FA;" d="M204.185,293.918l-55.906,55.224c-26.141,29.509-75.376,19.683-87.503-18.66
		c-0.799-2.536-1.396-5.062-1.801-7.566c-1.513-9.314-0.362-18.34,2.803-26.429c8.835-22.614,33.452-37.864,59.87-31.587
		l63.739,10.742l13.747,2.313c0.416,0.064,0.81,0.16,1.204,0.277C206.999,280.235,209.343,288.824,204.185,293.918z"/>
</g>
<path style="fill:#93DCFC;" d="M185.387,275.642l-37.107,36.649c-25.481,28.773-72.893,20.152-86.502-15.804
	c8.835-22.614,33.452-37.864,59.87-31.587L185.387,275.642z"/>
<g>
	<path style="fill:#0691CE;" d="M277.074,173.678l-22.631,44.265c-0.12,0.237-0.253,0.459-0.398,0.67
		c-2.475,3.639-8.107,3.418-10.199-0.665l-22.672-44.245c-12.829-21.396,2.478-49.23,27.926-49.242
		c1.681-0.001,3.317,0.119,4.904,0.353C276.448,128.096,289.048,153.665,277.074,173.678z"/>
	<path style="fill:#0691CE;" d="M479.449,226.69l-34.93-7.783c-0.186-0.042-0.366-0.094-0.538-0.157
		c-2.983-1.068-3.844-5.032-1.377-7.227l26.74-23.783c12.594-12.8,34.753-7.157,39.354,10.575c0.304,1.171,0.516,2.334,0.639,3.482
		C511.099,218.028,495.555,231.423,479.449,226.69z"/>
	<path style="fill:#0691CE;" d="M85.943,450.674l31.109-17.688c0.166-0.095,0.334-0.177,0.504-0.246
		c2.927-1.212,6.228,1.148,5.873,4.431l-3.846,35.579c-0.737,17.942-20.947,28.639-36.262,18.589
		c-1.011-0.664-1.949-1.383-2.811-2.151C68.305,478.346,70.83,457.982,85.943,450.674z"/>
	<path style="fill:#0691CE;" d="M41.817,200.781l24.404,26.174c0.131,0.14,0.249,0.283,0.356,0.434
		c1.855,2.568,0.324,6.324-2.952,6.738l-35.503,4.489c-17.626,3.433-32.708-13.755-26.473-30.979
		c0.411-1.137,0.894-2.217,1.442-3.232C10.818,190.022,31.212,187.769,41.817,200.781z"/>
</g>
<path style="fill:#40C1FA;" d="M466.536,382.189c-1.694,3.186-3.57,6.17-5.606,8.941c-1.929,2.622-4.007,5.062-6.213,7.321
	c-30.638,31.459-85.479,27.154-109.616-12.82l-61.085-87.471c-0.33-0.469-0.618-0.938-0.874-1.428
	c-4.401-8.355,1.694-18.799,11.531-18.66l23.616,0.352l83.06,1.247C454.813,276.92,492.144,333.956,466.536,382.189z"/>
<path style="fill:#93DCFC;" d="M466.536,382.189c-1.694,3.186-3.57,6.17-5.606,8.941c-1.929,2.622-4.007,5.062-6.213,7.321
	c-27.644,6.021-58.453-4.646-74.939-31.949l-61.085-87.471c-0.139-0.202-0.277-0.405-0.405-0.607l83.06,1.247
	C454.813,276.92,492.144,333.956,466.536,382.189z"/>
<g>
</g>
<g>
</g>
<g>
</g>
<g>
</g>
<g>
</g>
<g>
</g>
<g>
</g>
<g>
</g>
<g>
</g>
<g>
</g>
<g>
</g>
<g>
</g>
<g>
</g>
<g>
</g>
<g>
</g>
</svg>
