<svg width="512" height="512" xmlns="http://www.w3.org/2000/svg">

 <g>
  <title>background</title>
  <rect fill="none" id="canvas_background" height="402" width="582" y="-1" x="-1"/>
 </g>
 <g>
  <title>Layer 1</title>
  <g id="svg_1">
   <path stroke="null" id="svg_2" fill="#666666" d="m256,183.467c-4.713,0 -8.533,-3.863645 -8.533,-8.628235l0,-120.800339c0.031,-28.579447 22.936,-51.740083 51.2,-51.771429l59.733,0c4.713,0 8.533,3.863645 8.533,8.628235s-3.82,8.628235 -8.533,8.628235l-59.733,0c-18.842,0.022246 -34.112,15.461659 -34.133,34.513949l0,120.800339c-0.001,4.765601 -3.821,8.629246 -8.534,8.629246z"/>
   <path id="svg_3" fill="#444444" d="m256,123.733c9.426,0 17.067,7.641 17.067,17.067l0,136.533l-34.133,0l0,-136.533c-0.001,-9.426 7.64,-17.067 17.066,-17.067z"/>
   <rect stroke="null" id="svg_4" fill="#666666" height="179.2" width="51.2" y="294.4" x="230.4"/>
   <path id="svg_5" fill="#444444" d="m221.867,465.067l68.267,0c9.426,0 17.067,7.641 17.067,17.067l0,17.066l-102.401,0l0,-17.067c0,-9.425 7.641,-17.066 17.067,-17.066z"/>
   <path id="svg_6" fill="#95A5A5" d="m238.933,260.267l34.133,0c4.713,0 8.533,3.82 8.533,8.533l0,34.133l-51.2,0l0,-34.133c0.001,-4.713 3.822,-8.533 8.534,-8.533z"/>
   <path stroke="null" id="svg_7" fill="#444444" d="m443.733,35.4l0,17.067c-0.028,9.414 -7.653,17.039 -17.067,17.067l-51.2,0c-9.414,-0.028 -17.039,-7.653 -17.067,-17.067l0,-17.067l85.334,0z"/>
   <path stroke="null" id="svg_8" fill="#999999" d="m443.733,18.333l0,17.067l-85.333,0l0,-34.133l68.267,0c9.414,0.027 17.039,7.652 17.066,17.066z"/>
  </g>
  <g id="svg_16"/>
  <g id="svg_17"/>
  <g id="svg_18"/>
  <g id="svg_19"/>
  <g id="svg_20"/>
  <g id="svg_21"/>
  <g id="svg_22"/>
  <g id="svg_23"/>
  <g id="svg_24"/>
  <g id="svg_25"/>
  <g id="svg_26"/>
  <g id="svg_27"/>
  <g id="svg_28"/>
  <g id="svg_29"/>
  <g id="svg_30"/>
 </g>
</svg>