<svg width="512" height="512" xmlns="http://www.w3.org/2000/svg">

 <g>
  <title>background</title>
  <rect fill="none" id="canvas_background" height="402" width="582" y="-1" x="-1"/>
 </g>
 <g>
  <title>Layer 1</title>
  <g id="svg_1">
   <path id="svg_2" fill="#95A5A5" d="m256,186.133679c-4.713,0 -8.533,-3.821 -8.533,-8.533l0,-119.467c0.031,-28.264 22.936,-51.169 51.2,-51.2l59.733,0c4.713,0 8.533,3.821 8.533,8.533s-3.82,8.533 -8.533,8.533l-59.733,0c-18.842,0.022 -34.112,15.291 -34.133,34.133l0,119.467c-0.001,4.713 -3.821,8.534 -8.534,8.534z"/>
   <path id="svg_3" fill="#7F8C8D" d="m256,126.399679c9.426,0 17.067,7.641 17.067,17.067l0,136.533l-34.133,0l0,-136.533c-0.001,-9.426 7.64,-17.067 17.066,-17.067z"/>
   <rect id="svg_4" fill="#BDC3C7" height="179.2" width="51.2" y="297.066679" x="230.4"/>
   <path id="svg_5" fill="#7F8C8D" d="m221.867,467.733679l68.267,0c9.426,0 17.067,7.641 17.067,17.067l0,17.066l-102.401,0l0,-17.067c0,-9.425 7.641,-17.066 17.067,-17.066z"/>
   <path id="svg_6" fill="#95A5A5" d="m238.933,262.933679l34.133,0c4.713,0 8.533,3.82 8.533,8.533l0,34.133l-51.2,0l0,-34.133c0.001,-4.713 3.822,-8.533 8.534,-8.533z"/>
   <path id="svg_7" fill="#F0C419" d="m443.733,41.066679l0,17.067c-0.028,9.414 -7.653,17.039 -17.067,17.067l-51.2,0c-9.414,-0.028 -17.039,-7.653 -17.067,-17.067l0,-17.067l85.334,0z"/>
   <path id="svg_8" fill="#BDC3C7" d="m443.733,23.999679l0,17.067l-85.333,0l0,-34.133l68.267,0c9.414,0.027 17.039,7.652 17.066,17.066z"/>
   <g id="svg_9">
    <path id="svg_10" fill="#E57E25" d="m315.733,126.399679c-3.451,-0.001 -6.562,-2.08 -7.882,-5.268c-1.32,-3.188 -0.591,-6.858 1.849,-9.298l25.6,-25.6c2.149,-2.188 5.307,-3.055 8.271,-2.27c2.965,0.785 5.28,3.1 6.065,6.065c0.785,2.965 -0.082,6.122 -2.27,8.271l-25.6,25.6c-1.598,1.603 -3.769,2.503 -6.033,2.5z"/>
    <path id="svg_11" fill="#E57E25" d="m486.4,126.399679c-2.264,0.003 -4.435,-0.897 -6.033,-2.5l-25.6,-25.6c-3.281,-3.341 -3.256,-8.701 0.054,-12.012c3.311,-3.311 8.671,-3.335 12.012,-0.054l25.6,25.6c2.44,2.44 3.169,6.11 1.849,9.298c-1.32,3.189 -4.431,5.268 -7.882,5.268z"/>
    <path id="svg_12" fill="#E57E25" d="m349.858,151.999679c-2.956,-0.002 -5.701,-1.534 -7.254,-4.05c-1.553,-2.516 -1.693,-5.656 -0.371,-8.3l17.067,-34.133c1.359,-2.735 4.076,-4.535 7.124,-4.72c3.048,-0.185 5.963,1.272 7.644,3.822c1.681,2.55 1.871,5.803 0.498,8.532l-17.066,34.133c-1.447,2.894 -4.406,4.721 -7.642,4.716z"/>
    <path id="svg_13" fill="#E57E25" d="m401.067,151.999679c-4.713,0 -8.533,-3.821 -8.533,-8.533l0,-34.133c0,-4.713 3.82,-8.533 8.533,-8.533s8.533,3.821 8.533,8.533l0,34.133c0,4.713 -3.82,8.533 -8.533,8.533z"/>
    <path id="svg_14" fill="#E57E25" d="m452.275,151.999679c-3.236,0.004 -6.195,-1.822 -7.642,-4.717l-17.067,-34.133c-1.372,-2.728 -1.182,-5.982 0.498,-8.532c1.681,-2.55 4.596,-4.007 7.644,-3.822c3.048,0.185 5.765,1.985 7.124,4.72l17.067,34.133c1.323,2.644 1.182,5.784 -0.371,8.3c-1.552,2.517 -4.296,4.049 -7.253,4.051z"/>
   </g>
  </g>
  <g id="svg_16"/>
  <g id="svg_17"/>
  <g id="svg_18"/>
  <g id="svg_19"/>
  <g id="svg_20"/>
  <g id="svg_21"/>
  <g id="svg_22"/>
  <g id="svg_23"/>
  <g id="svg_24"/>
  <g id="svg_25"/>
  <g id="svg_26"/>
  <g id="svg_27"/>
  <g id="svg_28"/>
  <g id="svg_29"/>
  <g id="svg_30"/>
 </g>
</svg>