<?xml version="1.0" encoding="iso-8859-1"?>
<!-- Generator: Adobe Illustrator 19.0.0, SVG Export Plug-In . SVG Version: 6.00 Build 0)  -->
<svg version="1.1" id="Capa_1" xmlns="http://www.w3.org/2000/svg" xmlns:xlink="http://www.w3.org/1999/xlink" x="0px" y="0px"
	 viewBox="0 0 512 512" style="enable-background:new 0 0 512 512;" xml:space="preserve">
<g>
	<path style="fill:#95A5A5;" d="M256,183.467c-4.713,0-8.533-3.821-8.533-8.533V55.467c0.031-28.264,22.936-51.169,51.2-51.2H358.4
		c4.713,0,8.533,3.821,8.533,8.533s-3.82,8.533-8.533,8.533h-59.733c-18.842,0.022-34.112,15.291-34.133,34.133v119.467
		C264.533,179.646,260.713,183.467,256,183.467z"/>
	<path style="fill:#7F8C8D;" d="M256,123.733c9.426,0,17.067,7.641,17.067,17.067v136.533h-34.133V140.8
		C238.933,131.374,246.574,123.733,256,123.733z"/>
	<rect x="230.4" y="294.4" style="fill:#BDC3C7;" width="51.2" height="179.2"/>
	<path style="fill:#7F8C8D;" d="M221.867,465.067h68.267c9.426,0,17.067,7.641,17.067,17.067V499.2H204.8v-17.067
		C204.8,472.708,212.441,465.067,221.867,465.067z"/>
	<path style="fill:#95A5A5;" d="M238.933,260.267h34.133c4.713,0,8.533,3.82,8.533,8.533v34.133h-51.2V268.8
		C230.4,264.087,234.221,260.267,238.933,260.267z"/>
	<path style="fill:#F0C419;" d="M443.733,38.4v17.067c-0.028,9.414-7.653,17.039-17.067,17.067h-51.2
		c-9.414-0.028-17.039-7.653-17.067-17.067V38.4H443.733z"/>
	<path style="fill:#BDC3C7;" d="M443.733,21.333V38.4H358.4V4.267h68.267C436.081,4.294,443.706,11.919,443.733,21.333z"/>
	<g>
		<path style="fill:#E57E25;" d="M315.733,123.733c-3.451-0.001-6.562-2.08-7.882-5.268c-1.32-3.188-0.591-6.858,1.849-9.298
			l25.6-25.6c2.149-2.188,5.307-3.055,8.271-2.27c2.965,0.785,5.28,3.1,6.065,6.065c0.785,2.965-0.082,6.122-2.27,8.271l-25.6,25.6
			C320.168,122.836,317.997,123.736,315.733,123.733z"/>
		<path style="fill:#E57E25;" d="M486.4,123.733c-2.264,0.003-4.435-0.897-6.033-2.5l-25.6-25.6
			c-3.281-3.341-3.256-8.701,0.054-12.012c3.311-3.311,8.671-3.335,12.012-0.054l25.6,25.6c2.44,2.44,3.169,6.11,1.849,9.298
			C492.962,121.654,489.851,123.733,486.4,123.733z"/>
		<path style="fill:#E57E25;" d="M349.858,149.333c-2.956-0.002-5.701-1.534-7.254-4.05c-1.553-2.516-1.693-5.656-0.371-8.3
			L359.3,102.85c1.359-2.735,4.076-4.535,7.124-4.72c3.048-0.185,5.963,1.272,7.644,3.822c1.681,2.55,1.871,5.803,0.498,8.532
			L357.5,144.617C356.053,147.511,353.094,149.338,349.858,149.333z"/>
		<path style="fill:#E57E25;" d="M401.067,149.333c-4.713,0-8.533-3.821-8.533-8.533v-34.133c0-4.713,3.82-8.533,8.533-8.533
			s8.533,3.821,8.533,8.533V140.8C409.6,145.513,405.78,149.333,401.067,149.333z"/>
		<path style="fill:#E57E25;" d="M452.275,149.333c-3.236,0.004-6.195-1.822-7.642-4.717l-17.067-34.133
			c-1.372-2.728-1.182-5.982,0.498-8.532c1.681-2.55,4.596-4.007,7.644-3.822c3.048,0.185,5.765,1.985,7.124,4.72l17.067,34.133
			c1.323,2.644,1.182,5.784-0.371,8.3C457.976,147.799,455.232,149.331,452.275,149.333z"/>
	</g>
	<path style="fill:#BDC3C7;" d="M503.467,507.733H8.533C3.821,507.733,0,503.913,0,499.2c0-4.713,3.821-8.533,8.533-8.533h494.933
		c4.713,0,8.533,3.821,8.533,8.533C512,503.913,508.18,507.733,503.467,507.733z"/>
</g>
<g>
</g>
<g>
</g>
<g>
</g>
<g>
</g>
<g>
</g>
<g>
</g>
<g>
</g>
<g>
</g>
<g>
</g>
<g>
</g>
<g>
</g>
<g>
</g>
<g>
</g>
<g>
</g>
<g>
</g>
</svg>
